<svg width="323" height="67" viewBox="0 0 323 67" fill="none" xmlns="http://www.w3.org/2000/svg">
<path d="M123.126 9.38397C124.07 9.55997 124.87 10.04 125.526 10.824C126.182 11.608 126.51 12.52 126.51 13.56C126.51 14.408 126.294 15.176 125.862 15.864C125.446 16.536 124.83 17.072 124.014 17.472C123.198 17.856 122.222 18.048 121.086 18.048H115.278V1.27197H120.918C122.614 1.27197 123.902 1.66397 124.782 2.44797C125.678 3.23197 126.126 4.24797 126.126 5.49597C126.126 6.53597 125.846 7.38397 125.286 8.03997C124.726 8.67997 124.006 9.12797 123.126 9.38397ZM116.958 8.68797H120.87C122.006 8.68797 122.878 8.42397 123.486 7.89597C124.11 7.35197 124.422 6.60797 124.422 5.66397C124.422 4.73597 124.11 4.00797 123.486 3.47997C122.878 2.95197 121.982 2.68797 120.798 2.68797H116.958V8.68797ZM120.966 16.632C122.182 16.632 123.126 16.344 123.798 15.768C124.486 15.192 124.83 14.4 124.83 13.392C124.83 12.384 124.47 11.584 123.75 10.992C123.046 10.384 122.094 10.08 120.894 10.08H116.958V16.632H120.966ZM130.439 2.47197C130.103 2.47197 129.815 2.35197 129.575 2.11197C129.335 1.87197 129.215 1.57597 129.215 1.22397C129.215 0.871973 129.335 0.583972 129.575 0.359972C129.815 0.119973 130.103 -2.71797e-05 130.439 -2.71797e-05C130.775 -2.71797e-05 131.063 0.119973 131.303 0.359972C131.543 0.583972 131.663 0.871973 131.663 1.22397C131.663 1.57597 131.543 1.87197 131.303 2.11197C131.063 2.35197 130.775 2.47197 130.439 2.47197ZM131.279 4.94397V18.048H129.599V4.94397H131.279ZM136.763 7.27197C137.131 6.45597 137.691 5.82397 138.443 5.37597C139.211 4.92797 140.147 4.70397 141.251 4.70397V6.45597H140.795C139.579 6.45597 138.603 6.78397 137.867 7.43997C137.131 8.09597 136.763 9.19197 136.763 10.728V18.048H135.083V4.94397H136.763V7.27197ZM155.634 10.824C155.634 11.4 155.618 11.84 155.586 12.144H144.714C144.762 13.136 145.002 13.984 145.434 14.688C145.866 15.392 146.434 15.928 147.138 16.296C147.842 16.648 148.61 16.824 149.442 16.824C150.53 16.824 151.442 16.56 152.178 16.032C152.93 15.504 153.426 14.792 153.666 13.896H155.442C155.122 15.176 154.434 16.224 153.378 17.04C152.338 17.84 151.026 18.24 149.442 18.24C148.21 18.24 147.106 17.968 146.13 17.424C145.154 16.864 144.386 16.08 143.826 15.072C143.282 14.048 143.01 12.856 143.01 11.496C143.01 10.136 143.282 8.94397 143.826 7.91997C144.37 6.89597 145.13 6.11197 146.106 5.56797C147.082 5.02397 148.194 4.75197 149.442 4.75197C150.69 4.75197 151.778 5.02397 152.706 5.56797C153.65 6.11197 154.37 6.84797 154.866 7.77597C155.378 8.68797 155.634 9.70397 155.634 10.824ZM153.93 10.776C153.946 9.79997 153.746 8.96797 153.33 8.27997C152.93 7.59197 152.378 7.07197 151.674 6.71997C150.97 6.36797 150.202 6.19197 149.37 6.19197C148.122 6.19197 147.058 6.59197 146.178 7.39197C145.298 8.19197 144.81 9.31997 144.714 10.776H153.93ZM169.508 4.94397L161.732 24.216H159.98L162.524 17.976L157.148 4.94397H158.996L163.46 16.128L167.78 4.94397H169.508ZM176.298 18.24C174.794 18.24 173.562 17.896 172.602 17.208C171.658 16.504 171.13 15.552 171.018 14.352H172.746C172.826 15.088 173.17 15.688 173.778 16.152C174.402 16.6 175.234 16.824 176.274 16.824C177.186 16.824 177.898 16.608 178.41 16.176C178.938 15.744 179.202 15.208 179.202 14.568C179.202 14.12 179.058 13.752 178.77 13.464C178.482 13.176 178.114 12.952 177.666 12.792C177.234 12.616 176.642 12.432 175.89 12.24C174.914 11.984 174.122 11.728 173.514 11.472C172.906 11.216 172.386 10.84 171.954 10.344C171.538 9.83197 171.33 9.15197 171.33 8.30397C171.33 7.66397 171.522 7.07197 171.906 6.52797C172.29 5.98397 172.834 5.55197 173.538 5.23197C174.242 4.91197 175.042 4.75197 175.938 4.75197C177.346 4.75197 178.482 5.11197 179.346 5.83197C180.21 6.53597 180.674 7.51197 180.738 8.75997H179.058C179.01 7.99197 178.706 7.37597 178.146 6.91197C177.602 6.43197 176.85 6.19197 175.89 6.19197C175.042 6.19197 174.354 6.39197 173.826 6.79197C173.298 7.19197 173.034 7.68797 173.034 8.27997C173.034 8.79197 173.186 9.21597 173.49 9.55197C173.81 9.87197 174.202 10.128 174.666 10.32C175.13 10.496 175.754 10.696 176.538 10.92C177.482 11.176 178.234 11.424 178.794 11.664C179.354 11.904 179.834 12.256 180.234 12.72C180.634 13.184 180.842 13.8 180.858 14.568C180.858 15.272 180.666 15.904 180.282 16.464C179.898 17.008 179.362 17.44 178.674 17.76C177.986 18.08 177.194 18.24 176.298 18.24ZM195.877 10.824C195.877 11.4 195.861 11.84 195.829 12.144H184.957C185.005 13.136 185.245 13.984 185.677 14.688C186.109 15.392 186.677 15.928 187.381 16.296C188.085 16.648 188.853 16.824 189.685 16.824C190.773 16.824 191.685 16.56 192.421 16.032C193.173 15.504 193.669 14.792 193.909 13.896H195.685C195.365 15.176 194.677 16.224 193.621 17.04C192.581 17.84 191.269 18.24 189.685 18.24C188.453 18.24 187.349 17.968 186.373 17.424C185.397 16.864 184.629 16.08 184.069 15.072C183.525 14.048 183.253 12.856 183.253 11.496C183.253 10.136 183.525 8.94397 184.069 7.91997C184.613 6.89597 185.373 6.11197 186.349 5.56797C187.325 5.02397 188.437 4.75197 189.685 4.75197C190.933 4.75197 192.021 5.02397 192.949 5.56797C193.893 6.11197 194.613 6.84797 195.109 7.77597C195.621 8.68797 195.877 9.70397 195.877 10.824ZM194.173 10.776C194.189 9.79997 193.989 8.96797 193.573 8.27997C193.173 7.59197 192.621 7.07197 191.917 6.71997C191.213 6.36797 190.445 6.19197 189.613 6.19197C188.365 6.19197 187.301 6.59197 186.421 7.39197C185.541 8.19197 185.053 9.31997 184.957 10.776H194.173ZM200.63 0.287973V18.048H198.95V0.287973H200.63ZM4.47999 35.712V58.048H-7.62939e-06V35.712H4.47999ZM2.23999 33.568C1.64266 33.568 1.14133 33.3653 0.735992 32.96C0.330659 32.5546 0.127992 32.0533 0.127992 31.456C0.127992 30.8586 0.330659 30.3573 0.735992 29.952C1.14133 29.5253 1.64266 29.312 2.23999 29.312C2.83733 29.312 3.33866 29.5253 3.74399 29.952C4.17066 30.3573 4.38399 30.8586 4.38399 31.456C4.38399 32.0533 4.17066 32.5546 3.74399 32.96C3.33866 33.3653 2.83733 33.568 2.23999 33.568ZM18.7302 40.064C20.8422 40.064 22.5489 40.736 23.8502 42.08C25.1516 43.4026 25.8022 45.2586 25.8022 47.648V58.048H21.3222V48.256C21.3222 46.848 20.9702 45.7706 20.2662 45.024C19.5622 44.256 18.6022 43.872 17.3862 43.872C16.1489 43.872 15.1676 44.256 14.4422 45.024C13.7382 45.7706 13.3862 46.848 13.3862 48.256V58.048H8.90624V40.32H13.3862V42.528C13.9836 41.76 14.7409 41.1626 15.6582 40.736C16.5969 40.288 17.6209 40.064 18.7302 40.064ZM35.2785 44V52.576C35.2785 53.1733 35.4172 53.6106 35.6945 53.888C35.9932 54.144 36.4838 54.272 37.1665 54.272H39.2465V58.048H36.4305C32.6545 58.048 30.7665 56.2133 30.7665 52.544V44H28.6545V40.32H30.7665V35.936H35.2785V40.32H39.2465V44H35.2785ZM58.9487 48.8C58.9487 49.44 58.9061 50.016 58.8207 50.528H45.8607C45.9674 51.808 46.4154 52.8106 47.2047 53.536C47.9941 54.2613 48.9647 54.624 50.1167 54.624C51.7807 54.624 52.9647 53.9093 53.6687 52.48H58.5007C57.9887 54.1866 57.0074 55.5946 55.5567 56.704C54.1061 57.792 52.3247 58.336 50.2127 58.336C48.5061 58.336 46.9701 57.9626 45.6047 57.216C44.2607 56.448 43.2047 55.3706 42.4367 53.984C41.6901 52.5973 41.3167 50.9973 41.3167 49.184C41.3167 47.3493 41.6901 45.7386 42.4367 44.352C43.1834 42.9653 44.2287 41.8986 45.5727 41.152C46.9167 40.4053 48.4634 40.032 50.2127 40.032C51.8981 40.032 53.4021 40.3946 54.7247 41.12C56.0687 41.8453 57.1034 42.88 57.8287 44.224C58.5754 45.5466 58.9487 47.072 58.9487 48.8ZM54.3087 47.52C54.2874 46.368 53.8714 45.4506 53.0607 44.768C52.2501 44.064 51.2581 43.712 50.0847 43.712C48.9754 43.712 48.0367 44.0533 47.2687 44.736C46.5221 45.3973 46.0634 46.3253 45.8927 47.52H54.3087ZM66.6987 43.072C67.2747 42.1333 68.0214 41.3973 68.9387 40.864C69.8774 40.3306 70.9441 40.064 72.1387 40.064V44.768H70.9547C69.5467 44.768 68.4801 45.0986 67.7547 45.76C67.0507 46.4213 66.6987 47.5733 66.6987 49.216V58.048H62.2187V40.32H66.6987V43.072ZM74.0042 49.12C74.0042 47.328 74.3562 45.7386 75.0602 44.352C75.7856 42.9653 76.7562 41.8986 77.9722 41.152C79.2096 40.4053 80.5856 40.032 82.1002 40.032C83.4229 40.032 84.5749 40.2986 85.5562 40.832C86.5589 41.3653 87.3589 42.0373 87.9562 42.848V40.32H92.4682V58.048H87.9562V55.456C87.3802 56.288 86.5802 56.9813 85.5562 57.536C84.5536 58.0693 83.3909 58.336 82.0682 58.336C80.5749 58.336 79.2096 57.952 77.9722 57.184C76.7562 56.416 75.7856 55.3386 75.0602 53.952C74.3562 52.544 74.0042 50.9333 74.0042 49.12ZM87.9562 49.184C87.9562 48.096 87.7429 47.168 87.3162 46.4C86.8896 45.6106 86.3136 45.0133 85.5882 44.608C84.8629 44.1813 84.0842 43.968 83.2522 43.968C82.4202 43.968 81.6522 44.1706 80.9482 44.576C80.2442 44.9813 79.6682 45.5786 79.2202 46.368C78.7936 47.136 78.5802 48.0533 78.5802 49.12C78.5802 50.1866 78.7936 51.1253 79.2202 51.936C79.6682 52.7253 80.2442 53.3333 80.9482 53.76C81.6736 54.1866 82.4416 54.4 83.2522 54.4C84.0842 54.4 84.8629 54.1973 85.5882 53.792C86.3136 53.3653 86.8896 52.768 87.3162 52C87.7429 51.2106 87.9562 50.272 87.9562 49.184ZM107.34 58.048L101.324 50.496V58.048H96.8437V34.368H101.324V47.84L107.276 40.32H113.1L105.292 49.216L113.164 58.048H107.34ZM120.747 44V52.576C120.747 53.1733 120.886 53.6106 121.163 53.888C121.462 54.144 121.953 54.272 122.635 54.272H124.715V58.048H121.899C118.123 58.048 116.235 56.2133 116.235 52.544V44H114.123V40.32H116.235V35.936H120.747V40.32H124.715V44H120.747ZM130.209 38.208C129.42 38.208 128.759 37.9626 128.225 37.472C127.713 36.96 127.457 36.3306 127.457 35.584C127.457 34.8373 127.713 34.2186 128.225 33.728C128.759 33.216 129.42 32.96 130.209 32.96C130.999 32.96 131.649 33.216 132.161 33.728C132.695 34.2186 132.961 34.8373 132.961 35.584C132.961 36.3306 132.695 36.96 132.161 37.472C131.649 37.9626 130.999 38.208 130.209 38.208ZM132.417 40.32V58.048H127.937V40.32H132.417ZM144.972 44H141.868V58.048H137.324V44H135.308V40.32H137.324V39.424C137.324 37.248 137.942 35.648 139.18 34.624C140.417 33.6 142.284 33.12 144.78 33.184V36.96C143.692 36.9386 142.934 37.12 142.508 37.504C142.081 37.888 141.868 38.5813 141.868 39.584V40.32H144.972V44ZM171.116 51.584C171.116 52.6506 170.86 53.6533 170.348 54.592C169.857 55.5306 169.121 56.32 168.14 56.96C167.18 57.6 166.028 58.0053 164.684 58.176V59.648C165.857 59.648 166.839 59.9466 167.628 60.544C168.439 61.1413 168.844 62.0053 168.844 63.136C168.844 64.288 168.428 65.1733 167.596 65.792C166.785 66.4106 165.783 66.72 164.588 66.72H160.044V64.096H163.852C164.364 64.096 164.748 64.0213 165.004 63.872C165.281 63.7226 165.42 63.456 165.42 63.072C165.42 62.688 165.281 62.4213 165.004 62.272C164.748 62.144 164.364 62.08 163.852 62.08H161.868V58.208C159.82 57.9733 158.156 57.28 156.876 56.128C155.596 54.976 154.945 53.472 154.924 51.616H159.724C159.788 52.5333 160.108 53.2586 160.684 53.792C161.281 54.3253 162.092 54.592 163.116 54.592C164.161 54.592 164.983 54.3466 165.58 53.856C166.177 53.344 166.476 52.6826 166.476 51.872C166.476 51.2106 166.273 50.6666 165.868 50.24C165.463 49.8133 164.951 49.4826 164.332 49.248C163.735 48.992 162.903 48.7146 161.836 48.416C160.385 47.9893 159.201 47.5733 158.284 47.168C157.388 46.7413 156.609 46.112 155.948 45.28C155.308 44.4266 154.988 43.296 154.988 41.888C154.988 40.5653 155.319 39.4133 155.98 38.432C156.641 37.4506 157.569 36.704 158.764 36.192C159.959 35.6586 161.324 35.392 162.86 35.392C165.164 35.392 167.031 35.9573 168.46 37.088C169.911 38.1973 170.711 39.7546 170.86 41.76H165.932C165.889 40.992 165.559 40.3626 164.94 39.872C164.343 39.36 163.543 39.104 162.54 39.104C161.665 39.104 160.961 39.328 160.428 39.776C159.916 40.224 159.66 40.8746 159.66 41.728C159.66 42.3253 159.852 42.8266 160.236 43.232C160.641 43.616 161.132 43.936 161.708 44.192C162.305 44.4266 163.137 44.704 164.204 45.024C165.655 45.4506 166.839 45.8773 167.756 46.304C168.673 46.7306 169.463 47.3706 170.124 48.224C170.785 49.0773 171.116 50.1973 171.116 51.584ZM191.736 40.32V58.048H187.224V55.808C186.648 56.576 185.891 57.184 184.952 57.632C184.035 58.0586 183.032 58.272 181.944 58.272C180.557 58.272 179.331 57.984 178.264 57.408C177.197 56.8106 176.355 55.9466 175.736 54.816C175.139 53.664 174.84 52.2986 174.84 50.72V40.32H179.32V50.08C179.32 51.488 179.672 52.576 180.376 53.344C181.08 54.0906 182.04 54.464 183.256 54.464C184.493 54.464 185.464 54.0906 186.168 53.344C186.872 52.576 187.224 51.488 187.224 50.08V40.32H191.736ZM200.636 42.912C201.212 42.0586 202.002 41.3653 203.004 40.832C204.028 40.2986 205.191 40.032 206.492 40.032C208.007 40.032 209.372 40.4053 210.588 41.152C211.826 41.8986 212.796 42.9653 213.5 44.352C214.226 45.7173 214.588 47.3066 214.588 49.12C214.588 50.9333 214.226 52.544 213.5 53.952C212.796 55.3386 211.826 56.416 210.588 57.184C209.372 57.952 208.007 58.336 206.492 58.336C205.17 58.336 204.007 58.08 203.004 57.568C202.023 57.0346 201.234 56.352 200.636 55.52V58.048H196.156V34.368H200.636V42.912ZM210.012 49.12C210.012 48.0533 209.788 47.136 209.34 46.368C208.914 45.5786 208.338 44.9813 207.612 44.576C206.908 44.1706 206.14 43.968 205.308 43.968C204.498 43.968 203.73 44.1813 203.004 44.608C202.3 45.0133 201.724 45.6106 201.276 46.4C200.85 47.1893 200.636 48.1173 200.636 49.184C200.636 50.2506 200.85 51.1786 201.276 51.968C201.724 52.7573 202.3 53.3653 203.004 53.792C203.73 54.1973 204.498 54.4 205.308 54.4C206.14 54.4 206.908 54.1866 207.612 53.76C208.338 53.3333 208.914 52.7253 209.34 51.936C209.788 51.1466 210.012 50.208 210.012 49.12ZM234.324 48.8C234.324 49.44 234.281 50.016 234.196 50.528H221.236C221.342 51.808 221.79 52.8106 222.58 53.536C223.369 54.2613 224.34 54.624 225.492 54.624C227.156 54.624 228.34 53.9093 229.044 52.48H233.876C233.364 54.1866 232.382 55.5946 230.932 56.704C229.481 57.792 227.7 58.336 225.588 58.336C223.881 58.336 222.345 57.9626 220.98 57.216C219.636 56.448 218.58 55.3706 217.812 53.984C217.065 52.5973 216.692 50.9973 216.692 49.184C216.692 47.3493 217.065 45.7386 217.812 44.352C218.558 42.9653 219.604 41.8986 220.948 41.152C222.292 40.4053 223.838 40.032 225.588 40.032C227.273 40.032 228.777 40.3946 230.1 41.12C231.444 41.8453 232.478 42.88 233.204 44.224C233.95 45.5466 234.324 47.072 234.324 48.8ZM229.684 47.52C229.662 46.368 229.246 45.4506 228.436 44.768C227.625 44.064 226.633 43.712 225.46 43.712C224.35 43.712 223.412 44.0533 222.644 44.736C221.897 45.3973 221.438 46.3253 221.268 47.52H229.684ZM260.771 42.432C260.259 41.4933 259.555 40.7786 258.659 40.288C257.763 39.7973 256.717 39.552 255.523 39.552C254.2 39.552 253.027 39.8506 252.003 40.448C250.979 41.0453 250.179 41.8986 249.603 43.008C249.027 44.1173 248.739 45.3973 248.739 46.848C248.739 48.3413 249.027 49.6426 249.603 50.752C250.2 51.8613 251.021 52.7146 252.067 53.312C253.112 53.9093 254.328 54.208 255.715 54.208C257.421 54.208 258.819 53.76 259.907 52.864C260.995 51.9466 261.709 50.6773 262.051 49.056H254.371V45.632H266.467V49.536C266.168 51.0933 265.528 52.5333 264.547 53.856C263.565 55.1786 262.296 56.2453 260.739 57.056C259.203 57.8453 257.475 58.24 255.555 58.24C253.4 58.24 251.448 57.76 249.699 56.8C247.971 55.8186 246.605 54.464 245.603 52.736C244.621 51.008 244.131 49.0453 244.131 46.848C244.131 44.6506 244.621 42.688 245.603 40.96C246.605 39.2106 247.971 37.856 249.699 36.896C251.448 35.9146 253.389 35.424 255.523 35.424C258.04 35.424 260.227 36.0426 262.083 37.28C263.939 38.496 265.219 40.2133 265.923 42.432H260.771ZM272.053 38.208C271.264 38.208 270.603 37.9626 270.069 37.472C269.557 36.96 269.301 36.3306 269.301 35.584C269.301 34.8373 269.557 34.2186 270.069 33.728C270.603 33.216 271.264 32.96 272.053 32.96C272.843 32.96 273.493 33.216 274.005 33.728C274.539 34.2186 274.805 34.8373 274.805 35.584C274.805 36.3306 274.539 36.96 274.005 37.472C273.493 37.9626 272.843 38.208 272.053 38.208ZM274.261 40.32V58.048H269.781V40.32H274.261ZM283.167 43.072C283.743 42.1333 284.49 41.3973 285.407 40.864C286.346 40.3306 287.413 40.064 288.607 40.064V44.768H287.423C286.015 44.768 284.949 45.0986 284.223 45.76C283.519 46.4213 283.167 47.5733 283.167 49.216V58.048H278.687V40.32H283.167V43.072ZM293.897 38.208C293.108 38.208 292.446 37.9626 291.913 37.472C291.401 36.96 291.145 36.3306 291.145 35.584C291.145 34.8373 291.401 34.2186 291.913 33.728C292.446 33.216 293.108 32.96 293.897 32.96C294.686 32.96 295.337 33.216 295.849 33.728C296.382 34.2186 296.649 34.8373 296.649 35.584C296.649 36.3306 296.382 36.96 295.849 37.472C295.337 37.9626 294.686 38.208 293.897 38.208ZM296.105 40.32V58.048H291.625V40.32H296.105ZM308.723 59.488C309.897 59.488 310.878 59.7866 311.667 60.384C312.478 60.9813 312.883 61.8453 312.883 62.976C312.883 64.128 312.467 65.0133 311.635 65.632C310.825 66.2506 309.822 66.56 308.627 66.56H304.083V63.936H307.891C308.403 63.936 308.787 63.8613 309.043 63.712C309.321 63.5626 309.459 63.296 309.459 62.912C309.459 62.528 309.321 62.2613 309.043 62.112C308.787 61.984 308.403 61.92 307.891 61.92H305.907V58.24C304.073 58.0053 302.579 57.3546 301.427 56.288C300.275 55.2213 299.657 53.9413 299.571 52.448H304.083C304.169 53.1306 304.499 53.696 305.075 54.144C305.673 54.592 306.409 54.816 307.283 54.816C308.137 54.816 308.798 54.6453 309.267 54.304C309.758 53.9626 310.003 53.5253 310.003 52.992C310.003 52.416 309.705 51.9893 309.107 51.712C308.531 51.4133 307.603 51.0933 306.323 50.752C305.001 50.432 303.913 50.1013 303.059 49.76C302.227 49.4186 301.502 48.896 300.883 48.192C300.286 47.488 299.987 46.5386 299.987 45.344C299.987 44.3626 300.265 43.4666 300.819 42.656C301.395 41.8453 302.206 41.2053 303.251 40.736C304.318 40.2666 305.566 40.032 306.995 40.032C309.107 40.032 310.793 40.5653 312.051 41.632C313.31 42.6773 314.003 44.096 314.131 45.888H309.843C309.779 45.184 309.481 44.6293 308.947 44.224C308.435 43.7973 307.742 43.584 306.867 43.584C306.057 43.584 305.427 43.7333 304.979 44.032C304.553 44.3306 304.339 44.7466 304.339 45.28C304.339 45.8773 304.638 46.336 305.235 46.656C305.833 46.9546 306.761 47.264 308.019 47.584C309.299 47.904 310.355 48.2346 311.187 48.576C312.019 48.9173 312.734 49.4506 313.331 50.176C313.95 50.88 314.27 51.8186 314.291 52.992C314.291 54.3573 313.79 55.52 312.787 56.48C311.806 57.44 310.451 58.0266 308.723 58.24V59.488ZM320.241 38.208C319.451 38.208 318.79 37.9626 318.257 37.472C317.745 36.96 317.489 36.3306 317.489 35.584C317.489 34.8373 317.745 34.2186 318.257 33.728C318.79 33.216 319.451 32.96 320.241 32.96C321.03 32.96 321.681 33.216 322.193 33.728C322.726 34.2186 322.993 34.8373 322.993 35.584C322.993 36.3306 322.726 36.96 322.193 37.472C321.681 37.9626 321.03 38.208 320.241 38.208ZM322.449 40.32V58.048H317.969V40.32H322.449Z" fill="#0056B3"/>
</svg>
