<svg width="40" height="38" viewBox="0 0 40 38" fill="none" xmlns="http://www.w3.org/2000/svg">
<path d="M0 19C0 8.50659 8.50659 0 19 0H33.3333C37.0152 0 40 2.98477 40 6.66667V31.3333C40 35.0152 37.0152 38 33.3333 38H19C8.50659 38 0 29.4934 0 19Z" fill="white"/>
<path d="M11 15H21M11 10H26M11 20H26" stroke="#2E6DF8" stroke-width="2" stroke-linecap="round" stroke-linejoin="round"/>
<path d="M13.64 26.416V32H12.52V28.368L11.024 32H10.176L8.672 28.368V32H7.552V26.416H8.824L10.6 30.568L12.376 26.416H13.64ZM18.8673 29.688C18.8673 29.848 18.8566 29.992 18.8353 30.12H15.5953C15.622 30.44 15.734 30.6907 15.9313 30.872C16.1286 31.0533 16.3713 31.144 16.6593 31.144C17.0753 31.144 17.3713 30.9653 17.5473 30.608H18.7553C18.6273 31.0347 18.382 31.3867 18.0193 31.664C17.6566 31.936 17.2113 32.072 16.6833 32.072C16.2566 32.072 15.8726 31.9787 15.5313 31.792C15.1953 31.6 14.9313 31.3307 14.7393 30.984C14.5526 30.6373 14.4593 30.2373 14.4593 29.784C14.4593 29.3253 14.5526 28.9227 14.7393 28.576C14.926 28.2293 15.1873 27.9627 15.5233 27.776C15.8593 27.5893 16.246 27.496 16.6833 27.496C17.1046 27.496 17.4806 27.5867 17.8113 27.768C18.1473 27.9493 18.406 28.208 18.5873 28.544C18.774 28.8747 18.8673 29.256 18.8673 29.688ZM17.7073 29.368C17.702 29.08 17.598 28.8507 17.3953 28.68C17.1926 28.504 16.9446 28.416 16.6513 28.416C16.374 28.416 16.1393 28.5013 15.9473 28.672C15.7606 28.8373 15.646 29.0693 15.6033 29.368H17.7073ZM22.1408 27.504C22.6688 27.504 23.0955 27.672 23.4208 28.008C23.7461 28.3387 23.9088 28.8027 23.9088 29.4V32H22.7888V29.552C22.7888 29.2 22.7008 28.9307 22.5248 28.744C22.3488 28.552 22.1088 28.456 21.8048 28.456C21.4955 28.456 21.2501 28.552 21.0688 28.744C20.8928 28.9307 20.8048 29.2 20.8048 29.552V32H19.6848V27.568H20.8048V28.12C20.9541 27.928 21.1435 27.7787 21.3728 27.672C21.6075 27.56 21.8635 27.504 22.1408 27.504ZM29.1579 27.568V32H28.0299V31.44C27.8859 31.632 27.6965 31.784 27.4619 31.896C27.2325 32.0027 26.9819 32.056 26.7099 32.056C26.3632 32.056 26.0565 31.984 25.7899 31.84C25.5232 31.6907 25.3125 31.4747 25.1579 31.192C25.0085 30.904 24.9339 30.5627 24.9339 30.168V27.568H26.0539V30.008C26.0539 30.36 26.1419 30.632 26.3179 30.824C26.4939 31.0107 26.7339 31.104 27.0379 31.104C27.3472 31.104 27.5899 31.0107 27.7659 30.824C27.9419 30.632 28.0299 30.36 28.0299 30.008V27.568H29.1579ZM26.3259 27.04C26.1765 27.04 26.0512 26.9893 25.9499 26.888C25.8485 26.7867 25.7979 26.6613 25.7979 26.512C25.7979 26.3627 25.8485 26.2373 25.9499 26.136C26.0512 26.0293 26.1765 25.976 26.3259 25.976C26.4752 25.976 26.6005 26.0293 26.7019 26.136C26.8085 26.2373 26.8619 26.3627 26.8619 26.512C26.8619 26.6613 26.8085 26.7867 26.7019 26.888C26.6005 26.9893 26.4752 27.04 26.3259 27.04ZM27.8059 27.04C27.6565 27.04 27.5312 26.9893 27.4299 26.888C27.3285 26.7867 27.2779 26.6613 27.2779 26.512C27.2779 26.3627 27.3285 26.2373 27.4299 26.136C27.5312 26.0293 27.6565 25.976 27.8059 25.976C27.9552 25.976 28.0805 26.0293 28.1819 26.136C28.2885 26.2373 28.3419 26.3627 28.3419 26.512C28.3419 26.6613 28.2885 26.7867 28.1819 26.888C28.0805 26.9893 27.9552 27.04 27.8059 27.04Z" fill="#2E6DF8"/>
</svg>
