<svg width="45" height="38" viewBox="0 0 45 38" fill="none" xmlns="http://www.w3.org/2000/svg">
<g clip-path="url(#clip0_1_9760)">
<path d="M0 19C0 8.50659 8.50659 0 19 0H37.5C41.6421 0 45 3.35786 45 7.5V30.5C45 34.6421 41.6421 38 37.5 38H19C8.50659 38 0 29.4934 0 19Z" fill="white"/>
<g filter="url(#filter0_d_1_9760)">
<rect x="7" y="5" width="28" height="28" rx="14" fill="#2E6DF8"/>
<path d="M25.6663 25L27.6663 23M27.6663 23L25.6663 21M27.6663 23H23.6663M20.9997 21.3333H17.9997C17.0693 21.3333 16.6041 21.3333 16.2256 21.4482C15.3733 21.7067 14.7064 22.3736 14.4478 23.2259C14.333 23.6044 14.333 24.0696 14.333 25M22.6663 16C22.6663 17.6569 21.3232 19 19.6663 19C18.0095 19 16.6663 17.6569 16.6663 16C16.6663 14.3431 18.0095 13 19.6663 13C21.3232 13 22.6663 14.3431 22.6663 16Z" stroke="white" stroke-linecap="round" stroke-linejoin="round"/>
</g>
</g>
<defs>
<filter id="filter0_d_1_9760" x="3" y="3" width="36" height="36" filterUnits="userSpaceOnUse" color-interpolation-filters="sRGB">
<feFlood flood-opacity="0" result="BackgroundImageFix"/>
<feColorMatrix in="SourceAlpha" type="matrix" values="0 0 0 0 0 0 0 0 0 0 0 0 0 0 0 0 0 0 127 0" result="hardAlpha"/>
<feOffset dy="2"/>
<feGaussianBlur stdDeviation="2"/>
<feComposite in2="hardAlpha" operator="out"/>
<feColorMatrix type="matrix" values="0 0 0 0 0 0 0 0 0 0 0 0 0 0 0 0 0 0 0.1 0"/>
<feBlend mode="normal" in2="BackgroundImageFix" result="effect1_dropShadow_1_9760"/>
<feBlend mode="normal" in="SourceGraphic" in2="effect1_dropShadow_1_9760" result="shape"/>
</filter>
<clipPath id="clip0_1_9760">
<path d="M0 19C0 8.50659 8.50659 0 19 0H37.5C41.6421 0 45 3.35786 45 7.5V30.5C45 34.6421 41.6421 38 37.5 38H19C8.50659 38 0 29.4934 0 19Z" fill="white"/>
</clipPath>
</defs>
</svg>
