<svg width="117" height="40" viewBox="0 0 117 40" fill="none" xmlns="http://www.w3.org/2000/svg">
<g clip-path="url(#clip0_1_9742)">
<path d="M0 20C0 8.95431 8.95431 0 20 0H106.57C112.093 0 116.57 4.47715 116.57 10V30C116.57 35.5228 112.093 40 106.57 40H20C8.9543 40 0 31.0457 0 20Z" fill="white"/>
<path d="M62.96 24.3613C65.5586 24.3614 67.1992 25.9097 67.1992 28.5166C67.2008 28.8436 67.1786 29.1702 67.1338 29.4941H60.9785C61.1409 30.6836 61.8882 31.2861 62.9277 31.2861C63.5609 31.286 64.0963 31.0419 64.3887 30.6348H66.9883C66.501 32.1338 65.1038 33.2255 62.96 33.2256C60.1502 33.2256 58.3312 31.7428 58.3311 28.7939C58.3311 25.7959 60.1988 24.3613 62.96 24.3613ZM77.7236 21.3633V32.9971H75.2227L75.0605 31.9541H74.8975C74.3291 32.7361 73.6148 33.2255 72.2832 33.2256C70.3667 33.2256 68.5314 31.8243 68.5312 28.7939C68.5312 25.7796 70.3666 24.3613 72.2832 24.3613C73.6148 24.3614 74.3291 24.8345 74.8975 25.6328H75.0605V21.3633H77.7236ZM45.7109 21.3633V27.7832H45.873L48.293 24.5898H51.3789L48.3262 28.3369L51.4277 32.9971H48.2285L45.873 29.2988H45.7109V32.9971H43.0469V21.3633H45.7109ZM54.6768 24.5898L54.8389 25.8604H55.001C55.5694 25.0458 56.2681 24.5899 57.7295 24.5898V27.0498C57.525 27.0232 57.3184 27.0126 57.1123 27.0176C55.6671 27.0177 54.839 27.7346 54.8389 29.4287V32.9971H52.1748V24.5898H54.6768ZM82.3525 24.5898V32.9971H79.6895V24.5898H82.3525ZM73.1924 26.5449C72.0717 26.5449 71.2754 27.2623 71.2754 28.7939C71.2755 30.3253 72.0718 31.042 73.1924 31.042C74.3454 31.042 75.1415 30.1298 75.1416 28.7939C75.1416 27.4579 74.3455 26.545 73.1924 26.5449ZM62.7979 26.3008C62.0021 26.3008 61.2548 26.8383 61.0273 27.7832H64.5674C64.3887 26.7245 63.5773 26.3009 62.7979 26.3008ZM81.0205 20.7441C81.8976 20.7441 82.5312 21.3799 82.5312 22.2598C82.5312 23.1396 81.8976 23.7754 81.0205 23.7754C80.1437 23.7752 79.5107 23.1395 79.5107 22.2598C79.5108 21.3801 80.1437 20.7444 81.0205 20.7441ZM68.3633 10.7354C70.9636 10.7355 72.6055 12.2838 72.6055 14.8906C72.607 15.2176 72.5849 15.5443 72.54 15.8682H66.3799C66.5424 17.0575 67.29 17.66 68.3301 17.6602C68.9639 17.6602 69.5004 17.416 69.793 17.0088H72.3936C71.9059 18.5076 70.5084 19.5995 68.3633 19.5996C65.5516 19.5996 63.7307 18.1168 63.7305 15.168C63.7305 12.1699 65.6002 10.7354 68.3633 10.7354ZM83.4951 10.7354C84.8277 10.7354 85.5425 11.2248 86.1113 12.0068H86.2744L86.4365 10.9639H88.9395V19.3711H86.4365L86.2744 18.3281H86.1113C85.5425 19.1265 84.8277 19.5995 83.4951 19.5996C81.5773 19.5996 79.7404 18.182 79.7402 15.168C79.7402 12.1374 81.5772 10.7354 83.4951 10.7354ZM45.7061 10.9639V19.3711H43.04V10.9639H45.7061ZM51.6865 10.7354C54.3845 10.7354 56.0429 11.8924 56.043 14.6621V19.3711H53.377V14.6621C53.3769 13.6358 52.8567 13 51.6865 13C50.5166 13.0001 49.9962 13.6359 49.9961 14.6621V19.3711H47.3311V14.6621C47.3312 11.8925 48.9887 10.7354 51.6865 10.7354ZM61.2598 8.71484V10.9639H63.3242V13.2285H61.2598V19.3711H58.5947V13.2285H56.8555V10.9639H58.5947V8.71484H61.2598ZM76.4248 10.9639L76.5869 12.2344H76.75C77.3188 11.4199 78.0179 10.9639 79.4805 10.9639V13.4238C79.2757 13.3972 79.0687 13.3866 78.8623 13.3916C77.416 13.3917 76.587 14.1085 76.5869 15.8027V19.3711H73.9219V10.9639H76.4248ZM93.2305 7.7373V14.1572H93.3936L95.8145 10.9639H98.9033L95.8477 14.7109L98.9521 19.3711H95.75L93.3936 15.6729H93.2305V19.3711H90.5654V7.7373H93.2305ZM103.438 8.71484V10.9639H105.502V13.2285H103.438V19.3711H100.772V13.2285H99.0332V10.9639H100.772V8.71484H103.438ZM109.306 10.9639V19.3711H106.64V10.9639H109.306ZM114.75 7.50977C115.303 7.50977 115.936 7.62388 116.57 7.77051V9.80664C116.148 9.74149 115.774 9.69238 115.465 9.69238C114.88 9.69248 114.571 9.87254 114.571 10.5078V10.9639H116.57V13.2285H114.571V19.3711H111.906V13.2285H110.443V10.9639H111.906V10.3115C111.906 8.22637 113.092 7.50982 114.75 7.50977ZM84.4053 12.9189C83.2838 12.9189 82.4873 13.6364 82.4873 15.168C82.4875 16.6992 83.2839 17.416 84.4053 17.416C85.559 17.4159 86.3553 16.5037 86.3555 15.168C86.3555 13.832 85.5591 12.9191 84.4053 12.9189ZM68.2002 12.6748C67.4038 12.6749 66.6563 13.2123 66.4287 14.1572H69.9717C69.7929 13.0982 68.9803 12.6748 68.2002 12.6748ZM44.373 7.11816C45.2506 7.11828 45.8848 7.75401 45.8848 8.63379C45.8847 9.51354 45.2506 10.1493 44.373 10.1494C43.4954 10.1494 42.8614 9.51362 42.8613 8.63379C42.8613 7.75393 43.4954 7.11816 44.373 7.11816ZM107.973 7.11816C108.85 7.11824 109.484 7.75399 109.484 8.63379C109.484 9.51357 108.85 10.1493 107.973 10.1494C107.095 10.1494 106.461 9.51362 106.461 8.63379C106.461 7.75393 107.095 7.11816 107.973 7.11816Z" fill="#2E6DF8"/>
<path d="M22 5C30.2843 5 37.001 11.7157 37.001 20C37.001 28.2843 30.2843 35 22 35C13.7158 34.9999 7 28.2842 7 20C7 11.7158 13.7158 5.00013 22 5Z" fill="#2E6DF8"/>
<rect width="12.6444" height="6.74367" rx="3.37183" transform="matrix(-0.707112 -0.707101 0.707112 -0.707101 19.8906 30.0415)" fill="#2E6DF8"/>
<rect width="18.9666" height="6.74367" rx="3.37183" transform="matrix(0.707112 -0.707101 -0.707112 -0.707101 19.8984 30.0415)" fill="white" fill-opacity="0.8"/>
<rect width="12.6444" height="6.74367" rx="3.37183" transform="matrix(-0.707112 -0.707101 0.707112 -0.707101 19.8896 30.0166)" fill="white"/>
</g>
<defs>
<clipPath id="clip0_1_9742">
<path d="M0 20C0 8.95431 8.95431 0 20 0H106.57C112.093 0 116.57 4.47715 116.57 10V30C116.57 35.5228 112.093 40 106.57 40H20C8.9543 40 0 31.0457 0 20Z" fill="white"/>
</clipPath>
</defs>
</svg>
