<svg width="393" height="81" viewBox="0 0 393 81" fill="none" xmlns="http://www.w3.org/2000/svg">
<g clip-path="url(#clip0_1_9774)">
<rect width="363" height="81" transform="translate(15)" fill="white"/>
<path d="M31.16 27.4H33.312V28H30.328V27.4L32.456 24.208H30.344V23.616H33.296V24.208L31.16 27.4ZM33.9846 25.792C33.9846 25.344 34.0753 24.952 34.2566 24.616C34.438 24.2747 34.686 24.0107 35.0006 23.824C35.3206 23.6373 35.6753 23.544 36.0646 23.544C36.4486 23.544 36.782 23.6267 37.0646 23.792C37.3473 23.9573 37.558 24.1653 37.6966 24.416V23.616H38.4326V28H37.6966V27.184C37.5526 27.44 37.3366 27.6533 37.0486 27.824C36.766 27.9893 36.4353 28.072 36.0566 28.072C35.6673 28.072 35.3153 27.976 35.0006 27.784C34.686 27.592 34.438 27.3227 34.2566 26.976C34.0753 26.6293 33.9846 26.2347 33.9846 25.792ZM37.6966 25.8C37.6966 25.4693 37.63 25.1813 37.4966 24.936C37.3633 24.6907 37.182 24.504 36.9526 24.376C36.7286 24.2427 36.4806 24.176 36.2086 24.176C35.9366 24.176 35.6886 24.24 35.4646 24.368C35.2406 24.496 35.062 24.6827 34.9286 24.928C34.7953 25.1733 34.7286 25.4613 34.7286 25.792C34.7286 26.128 34.7953 26.4213 34.9286 26.672C35.062 26.9173 35.2406 27.1067 35.4646 27.24C35.6886 27.368 35.9366 27.432 36.2086 27.432C36.4806 27.432 36.7286 27.368 36.9526 27.24C37.182 27.1067 37.3633 26.9173 37.4966 26.672C37.63 26.4213 37.6966 26.1307 37.6966 25.8ZM43.4389 23.616L40.7989 30.064H40.0469L40.9109 27.952L39.1429 23.616H39.9509L41.3269 27.168L42.6869 23.616H43.4389ZM44.8987 23.616V28H44.1707V23.616H44.8987ZM47.9234 24.216H47.0034V28H46.2754V24.216H45.7074V23.616H46.2754V23.304C46.2754 22.8133 46.4008 22.456 46.6514 22.232C46.9074 22.0027 47.3154 21.888 47.8754 21.888V22.496C47.5554 22.496 47.3288 22.56 47.1954 22.688C47.0674 22.8107 47.0034 23.016 47.0034 23.304V23.616H47.9234V24.216Z" fill="#739FCC"/>
<path d="M74.5442 24.328C74.6722 24.0773 74.8535 23.8827 75.0882 23.744C75.3282 23.6053 75.6189 23.536 75.9602 23.536V24.288H75.7682C74.9522 24.288 74.5442 24.7307 74.5442 25.616V28H73.8162V23.616H74.5442V24.328ZM77.1766 22.904C77.0379 22.904 76.9206 22.856 76.8246 22.76C76.7286 22.664 76.6806 22.5467 76.6806 22.408C76.6806 22.2693 76.7286 22.152 76.8246 22.056C76.9206 21.96 77.0379 21.912 77.1766 21.912C77.3099 21.912 77.4219 21.96 77.5126 22.056C77.6086 22.152 77.6566 22.2693 77.6566 22.408C77.6566 22.5467 77.6086 22.664 77.5126 22.76C77.4219 22.856 77.3099 22.904 77.1766 22.904ZM77.5286 23.616V28H76.8006V23.616H77.5286ZM80.3213 28.072C79.9853 28.072 79.684 28.016 79.4173 27.904C79.1507 27.7867 78.94 27.6267 78.7853 27.424C78.6307 27.216 78.5453 26.9787 78.5293 26.712H79.2813C79.3027 26.9307 79.404 27.1093 79.5853 27.248C79.772 27.3867 80.0147 27.456 80.3133 27.456C80.5907 27.456 80.8093 27.3947 80.9693 27.272C81.1293 27.1493 81.2093 26.9947 81.2093 26.808C81.2093 26.616 81.124 26.4747 80.9533 26.384C80.7827 26.288 80.5187 26.1947 80.1613 26.104C79.836 26.0187 79.5693 25.9333 79.3613 25.848C79.1587 25.7573 78.9827 25.6267 78.8333 25.456C78.6893 25.28 78.6173 25.0507 78.6173 24.768C78.6173 24.544 78.684 24.3387 78.8173 24.152C78.9507 23.9653 79.14 23.8187 79.3853 23.712C79.6307 23.6 79.9107 23.544 80.2253 23.544C80.7107 23.544 81.1027 23.6667 81.4013 23.912C81.7 24.1573 81.86 24.4933 81.8813 24.92H81.1533C81.1373 24.6907 81.044 24.5067 80.8733 24.368C80.708 24.2293 80.484 24.16 80.2013 24.16C79.94 24.16 79.732 24.216 79.5773 24.328C79.4227 24.44 79.3453 24.5867 79.3453 24.768C79.3453 24.912 79.3907 25.032 79.4813 25.128C79.5773 25.2187 79.6947 25.2933 79.8333 25.352C79.9773 25.4053 80.1747 25.4667 80.4253 25.536C80.74 25.6213 80.996 25.7067 81.1933 25.792C81.3907 25.872 81.5587 25.9947 81.6973 26.16C81.8413 26.3253 81.916 26.5413 81.9213 26.808C81.9213 27.048 81.8547 27.264 81.7213 27.456C81.588 27.648 81.3987 27.8 81.1533 27.912C80.9133 28.0187 80.636 28.072 80.3213 28.072ZM85.397 28L83.677 26.064V28H82.949V22.08H83.677V25.56L85.365 23.616H86.381L84.317 25.8L86.389 28H85.397ZM87.7942 22.08V28H87.0662V22.08H87.7942ZM89.4109 22.904C89.2723 22.904 89.1549 22.856 89.0589 22.76C88.9629 22.664 88.9149 22.5467 88.9149 22.408C88.9149 22.2693 88.9629 22.152 89.0589 22.056C89.1549 21.96 89.2723 21.912 89.4109 21.912C89.5443 21.912 89.6563 21.96 89.7469 22.056C89.8429 22.152 89.8909 22.2693 89.8909 22.408C89.8909 22.5467 89.8429 22.664 89.7469 22.76C89.6563 22.856 89.5443 22.904 89.4109 22.904ZM89.7629 23.616V28H89.0349V23.616H89.7629Z" fill="#739FCC"/>
<path d="M118.464 28L116.744 26.064V28H116.016V22.08H116.744V25.56L118.432 23.616H119.448L117.384 25.8L119.456 28H118.464ZM120.862 24.328C120.99 24.0773 121.171 23.8827 121.406 23.744C121.646 23.6053 121.936 23.536 122.278 23.536V24.288H122.086C121.27 24.288 120.862 24.7307 120.862 25.616V28H120.134V23.616H120.862V24.328ZM123.494 22.904C123.355 22.904 123.238 22.856 123.142 22.76C123.046 22.664 122.998 22.5467 122.998 22.408C122.998 22.2693 123.046 22.152 123.142 22.056C123.238 21.96 123.355 21.912 123.494 21.912C123.627 21.912 123.739 21.96 123.83 22.056C123.926 22.152 123.974 22.2693 123.974 22.408C123.974 22.5467 123.926 22.664 123.83 22.76C123.739 22.856 123.627 22.904 123.494 22.904ZM123.846 23.616V28H123.118V23.616H123.846ZM125.975 24.216V26.8C125.975 27.0133 126.02 27.1653 126.111 27.256C126.201 27.3413 126.359 27.384 126.583 27.384H127.119V28H126.463C126.057 28 125.753 27.9067 125.551 27.72C125.348 27.5333 125.247 27.2267 125.247 26.8V24.216H124.679V23.616H125.247V22.512H125.975V23.616H127.119V24.216H125.975ZM128.377 22.904C128.238 22.904 128.121 22.856 128.025 22.76C127.929 22.664 127.881 22.5467 127.881 22.408C127.881 22.2693 127.929 22.152 128.025 22.056C128.121 21.96 128.238 21.912 128.377 21.912C128.51 21.912 128.622 21.96 128.713 22.056C128.809 22.152 128.857 22.2693 128.857 22.408C128.857 22.5467 128.809 22.664 128.713 22.76C128.622 22.856 128.51 22.904 128.377 22.904ZM128.729 23.616V28H128.001V23.616H128.729ZM132.418 28L130.698 26.064V28H129.97V22.08H130.698V25.56L132.386 23.616H133.402L131.338 25.8L133.41 28H132.418Z" fill="#739FCC"/>
<path d="M185.672 15.228V25H183.712V20.842H179.526V25H177.566V15.228H179.526V19.246H183.712V15.228H185.672ZM187.097 21.094C187.097 20.31 187.251 19.6147 187.559 19.008C187.876 18.4013 188.301 17.9347 188.833 17.608C189.374 17.2813 189.976 17.118 190.639 17.118C191.217 17.118 191.721 17.2347 192.151 17.468C192.589 17.7013 192.939 17.9953 193.201 18.35V17.244H195.175V25H193.201V23.866C192.949 24.23 192.599 24.5333 192.151 24.776C191.712 25.0093 191.203 25.126 190.625 25.126C189.971 25.126 189.374 24.958 188.833 24.622C188.301 24.286 187.876 23.8147 187.559 23.208C187.251 22.592 187.097 21.8873 187.097 21.094ZM193.201 21.122C193.201 20.646 193.107 20.24 192.921 19.904C192.734 19.5587 192.482 19.2973 192.165 19.12C191.847 18.9333 191.507 18.84 191.143 18.84C190.779 18.84 190.443 18.9287 190.135 19.106C189.827 19.2833 189.575 19.5447 189.379 19.89C189.192 20.226 189.099 20.6273 189.099 21.094C189.099 21.5607 189.192 21.9713 189.379 22.326C189.575 22.6713 189.827 22.9373 190.135 23.124C190.452 23.3107 190.788 23.404 191.143 23.404C191.507 23.404 191.847 23.3153 192.165 23.138C192.482 22.9513 192.734 22.69 192.921 22.354C193.107 22.0087 193.201 21.598 193.201 21.122ZM200.057 25.126C199.422 25.126 198.853 25.014 198.349 24.79C197.845 24.5567 197.444 24.244 197.145 23.852C196.856 23.46 196.697 23.026 196.669 22.55H198.643C198.68 22.8487 198.825 23.096 199.077 23.292C199.338 23.488 199.66 23.586 200.043 23.586C200.416 23.586 200.706 23.5113 200.911 23.362C201.126 23.2127 201.233 23.0213 201.233 22.788C201.233 22.536 201.102 22.3493 200.841 22.228C200.589 22.0973 200.183 21.9573 199.623 21.808C199.044 21.668 198.568 21.5233 198.195 21.374C197.831 21.2247 197.514 20.996 197.243 20.688C196.982 20.38 196.851 19.9647 196.851 19.442C196.851 19.0127 196.972 18.6207 197.215 18.266C197.467 17.9113 197.822 17.6313 198.279 17.426C198.746 17.2207 199.292 17.118 199.917 17.118C200.841 17.118 201.578 17.3513 202.129 17.818C202.68 18.2753 202.983 18.896 203.039 19.68H201.163C201.135 19.372 201.004 19.1293 200.771 18.952C200.547 18.7653 200.244 18.672 199.861 18.672C199.506 18.672 199.231 18.7373 199.035 18.868C198.848 18.9987 198.755 19.1807 198.755 19.414C198.755 19.6753 198.886 19.876 199.147 20.016C199.408 20.1467 199.814 20.282 200.365 20.422C200.925 20.562 201.387 20.7067 201.751 20.856C202.115 21.0053 202.428 21.2387 202.689 21.556C202.96 21.864 203.1 22.2747 203.109 22.788C203.109 23.236 202.983 23.6373 202.731 23.992C202.488 24.3467 202.134 24.6267 201.667 24.832C201.21 25.028 200.673 25.126 200.057 25.126ZM207.686 25.126C207.051 25.126 206.482 25.014 205.978 24.79C205.474 24.5567 205.073 24.244 204.774 23.852C204.485 23.46 204.326 23.026 204.298 22.55H206.272C206.309 22.8487 206.454 23.096 206.706 23.292C206.967 23.488 207.289 23.586 207.672 23.586C208.045 23.586 208.335 23.5113 208.54 23.362C208.755 23.2127 208.862 23.0213 208.862 22.788C208.862 22.536 208.731 22.3493 208.47 22.228C208.218 22.0973 207.812 21.9573 207.252 21.808C206.673 21.668 206.197 21.5233 205.824 21.374C205.46 21.2247 205.143 20.996 204.872 20.688C204.611 20.38 204.48 19.9647 204.48 19.442C204.48 19.0127 204.601 18.6207 204.844 18.266C205.096 17.9113 205.451 17.6313 205.908 17.426C206.375 17.2207 206.921 17.118 207.546 17.118C208.47 17.118 209.207 17.3513 209.758 17.818C210.309 18.2753 210.612 18.896 210.668 19.68H208.792C208.764 19.372 208.633 19.1293 208.4 18.952C208.176 18.7653 207.873 18.672 207.49 18.672C207.135 18.672 206.86 18.7373 206.664 18.868C206.477 18.9987 206.384 19.1807 206.384 19.414C206.384 19.6753 206.515 19.876 206.776 20.016C207.037 20.1467 207.443 20.282 207.994 20.422C208.554 20.562 209.016 20.7067 209.38 20.856C209.744 21.0053 210.057 21.2387 210.318 21.556C210.589 21.864 210.729 22.2747 210.738 22.788C210.738 23.236 210.612 23.6373 210.36 23.992C210.117 24.3467 209.763 24.6267 209.296 24.832C208.839 25.028 208.302 25.126 207.686 25.126ZM211.843 21.094C211.843 20.31 211.997 19.6147 212.305 19.008C212.622 18.4013 213.047 17.9347 213.579 17.608C214.12 17.2813 214.722 17.118 215.385 17.118C215.964 17.118 216.468 17.2347 216.897 17.468C217.336 17.7013 217.686 17.9953 217.947 18.35V17.244H219.921V25H217.947V23.866C217.695 24.23 217.345 24.5333 216.897 24.776C216.458 25.0093 215.95 25.126 215.371 25.126C214.718 25.126 214.12 24.958 213.579 24.622C213.047 24.286 212.622 23.8147 212.305 23.208C211.997 22.592 211.843 21.8873 211.843 21.094ZM217.947 21.122C217.947 20.646 217.854 20.24 217.667 19.904C217.48 19.5587 217.228 19.2973 216.911 19.12C216.594 18.9333 216.253 18.84 215.889 18.84C215.525 18.84 215.189 18.9287 214.881 19.106C214.573 19.2833 214.321 19.5447 214.125 19.89C213.938 20.226 213.845 20.6273 213.845 21.094C213.845 21.5607 213.938 21.9713 214.125 22.326C214.321 22.6713 214.573 22.9373 214.881 23.124C215.198 23.3107 215.534 23.404 215.889 23.404C216.253 23.404 216.594 23.3153 216.911 23.138C217.228 22.9513 217.48 22.69 217.667 22.354C217.854 22.0087 217.947 21.598 217.947 21.122ZM224.803 25.126C224.168 25.126 223.599 25.014 223.095 24.79C222.591 24.5567 222.19 24.244 221.891 23.852C221.602 23.46 221.443 23.026 221.415 22.55H223.389C223.426 22.8487 223.571 23.096 223.823 23.292C224.084 23.488 224.406 23.586 224.789 23.586C225.162 23.586 225.452 23.5113 225.657 23.362C225.872 23.2127 225.979 23.0213 225.979 22.788C225.979 22.536 225.848 22.3493 225.587 22.228C225.335 22.0973 224.929 21.9573 224.369 21.808C223.79 21.668 223.314 21.5233 222.941 21.374C222.577 21.2247 222.26 20.996 221.989 20.688C221.728 20.38 221.597 19.9647 221.597 19.442C221.597 19.0127 221.718 18.6207 221.961 18.266C222.213 17.9113 222.568 17.6313 223.025 17.426C223.492 17.2207 224.038 17.118 224.663 17.118C225.587 17.118 226.324 17.3513 226.875 17.818C227.426 18.2753 227.729 18.896 227.785 19.68H225.909C225.881 19.372 225.75 19.1293 225.517 18.952C225.293 18.7653 224.99 18.672 224.607 18.672C224.252 18.672 223.977 18.7373 223.781 18.868C223.594 18.9987 223.501 19.1807 223.501 19.414C223.501 19.6753 223.632 19.876 223.893 20.016C224.154 20.1467 224.56 20.282 225.111 20.422C225.671 20.562 226.133 20.7067 226.497 20.856C226.861 21.0053 227.174 21.2387 227.435 21.556C227.706 21.864 227.846 22.2747 227.855 22.788C227.855 23.236 227.729 23.6373 227.477 23.992C227.234 24.3467 226.88 24.6267 226.413 24.832C225.956 25.028 225.419 25.126 224.803 25.126Z" fill="#0056B3"/>
<path d="M271.2 23.544C271.579 23.544 271.91 23.6267 272.192 23.792C272.48 23.9573 272.694 24.1653 272.832 24.416V23.616H273.568V28.096C273.568 28.496 273.483 28.8507 273.312 29.16C273.142 29.4747 272.896 29.72 272.576 29.896C272.262 30.072 271.894 30.16 271.472 30.16C270.896 30.16 270.416 30.024 270.032 29.752C269.648 29.48 269.422 29.1093 269.352 28.64H270.072C270.152 28.9067 270.318 29.12 270.568 29.28C270.819 29.4453 271.12 29.528 271.472 29.528C271.872 29.528 272.198 29.4027 272.448 29.152C272.704 28.9013 272.832 28.5493 272.832 28.096V27.176C272.688 27.432 272.475 27.6453 272.192 27.816C271.91 27.9867 271.579 28.072 271.2 28.072C270.811 28.072 270.456 27.976 270.136 27.784C269.822 27.592 269.574 27.3227 269.392 26.976C269.211 26.6293 269.12 26.2347 269.12 25.792C269.12 25.344 269.211 24.952 269.392 24.616C269.574 24.2747 269.822 24.0107 270.136 23.824C270.456 23.6373 270.811 23.544 271.2 23.544ZM272.832 25.8C272.832 25.4693 272.766 25.1813 272.632 24.936C272.499 24.6907 272.318 24.504 272.088 24.376C271.864 24.2427 271.616 24.176 271.344 24.176C271.072 24.176 270.824 24.24 270.6 24.368C270.376 24.496 270.198 24.6827 270.064 24.928C269.931 25.1733 269.864 25.4613 269.864 25.792C269.864 26.128 269.931 26.4213 270.064 26.672C270.198 26.9173 270.376 27.1067 270.6 27.24C270.824 27.368 271.072 27.432 271.344 27.432C271.616 27.432 271.864 27.368 272.088 27.24C272.318 27.1067 272.499 26.9173 272.632 26.672C272.766 26.4213 272.832 26.1307 272.832 25.8ZM278.687 23.616V28H277.959V27.352C277.82 27.576 277.625 27.752 277.375 27.88C277.129 28.0027 276.857 28.064 276.559 28.064C276.217 28.064 275.911 27.9947 275.639 27.856C275.367 27.712 275.151 27.4987 274.991 27.216C274.836 26.9333 274.759 26.5893 274.759 26.184V23.616H275.479V26.088C275.479 26.52 275.588 26.8533 275.807 27.088C276.025 27.3173 276.324 27.432 276.703 27.432C277.092 27.432 277.399 27.312 277.623 27.072C277.847 26.832 277.959 26.4827 277.959 26.024V23.616H278.687ZM276.103 23.024C275.985 23.024 275.884 22.984 275.799 22.904C275.719 22.824 275.679 22.7253 275.679 22.608C275.679 22.4907 275.719 22.392 275.799 22.312C275.884 22.2267 275.985 22.184 276.103 22.184C276.215 22.184 276.311 22.2267 276.391 22.312C276.476 22.392 276.519 22.4907 276.519 22.608C276.519 22.7253 276.476 22.824 276.391 22.904C276.311 22.984 276.215 23.024 276.103 23.024ZM277.399 23.024C277.281 23.024 277.183 22.984 277.103 22.904C277.023 22.824 276.983 22.7253 276.983 22.608C276.983 22.4907 277.023 22.392 277.103 22.312C277.183 22.2267 277.281 22.184 277.399 22.184C277.516 22.184 277.615 22.2267 277.695 22.312C277.78 22.392 277.823 22.4907 277.823 22.608C277.823 22.7253 277.78 22.824 277.695 22.904C277.615 22.984 277.516 23.024 277.399 23.024ZM281.548 27.328L282.908 23.616H283.684L281.964 28H281.116L279.396 23.616H280.18L281.548 27.328ZM288.4 25.64C288.4 25.7787 288.392 25.9253 288.376 26.08H284.872C284.899 26.512 285.046 26.8507 285.312 27.096C285.584 27.336 285.912 27.456 286.296 27.456C286.611 27.456 286.872 27.384 287.08 27.24C287.294 27.0907 287.443 26.8933 287.528 26.648H288.312C288.195 27.0693 287.96 27.4133 287.608 27.68C287.256 27.9413 286.819 28.072 286.296 28.072C285.88 28.072 285.507 27.9787 285.176 27.792C284.851 27.6053 284.595 27.3413 284.408 27C284.222 26.6533 284.128 26.2533 284.128 25.8C284.128 25.3467 284.219 24.9493 284.4 24.608C284.582 24.2667 284.835 24.0053 285.16 23.824C285.491 23.6373 285.87 23.544 286.296 23.544C286.712 23.544 287.08 23.6347 287.4 23.816C287.72 23.9973 287.966 24.248 288.136 24.568C288.312 24.8827 288.4 25.24 288.4 25.64ZM287.648 25.488C287.648 25.2107 287.587 24.9733 287.464 24.776C287.342 24.5733 287.174 24.4213 286.96 24.32C286.752 24.2133 286.52 24.16 286.264 24.16C285.896 24.16 285.582 24.2773 285.32 24.512C285.064 24.7467 284.918 25.072 284.88 25.488H287.648ZM291.497 23.536C292.03 23.536 292.462 23.6987 292.793 24.024C293.124 24.344 293.289 24.808 293.289 25.416V28H292.569V25.52C292.569 25.0827 292.46 24.7493 292.241 24.52C292.022 24.2853 291.724 24.168 291.345 24.168C290.961 24.168 290.654 24.288 290.425 24.528C290.201 24.768 290.089 25.1173 290.089 25.576V28H289.361V23.616H290.089V24.24C290.233 24.016 290.428 23.8427 290.673 23.72C290.924 23.5973 291.198 23.536 291.497 23.536ZM295.206 22.08V28H294.478V22.08H295.206ZM296.823 22.904C296.684 22.904 296.567 22.856 296.471 22.76C296.375 22.664 296.327 22.5467 296.327 22.408C296.327 22.2693 296.375 22.152 296.471 22.056C296.567 21.96 296.684 21.912 296.823 21.912C296.956 21.912 297.068 21.96 297.159 22.056C297.255 22.152 297.303 22.2693 297.303 22.408C297.303 22.5467 297.255 22.664 297.159 22.76C297.068 22.856 296.956 22.904 296.823 22.904ZM297.175 23.616V28H296.447V23.616H297.175Z" fill="#739FCC"/>
<path d="M327.888 23.536C328.229 23.536 328.533 23.608 328.8 23.752C329.067 23.8907 329.277 24.1013 329.432 24.384C329.587 24.6667 329.664 25.0107 329.664 25.416V28H328.944V25.52C328.944 25.0827 328.835 24.7493 328.616 24.52C328.403 24.2853 328.112 24.168 327.744 24.168C327.365 24.168 327.064 24.2907 326.84 24.536C326.616 24.776 326.504 25.1253 326.504 25.584V28H325.784V25.52C325.784 25.0827 325.675 24.7493 325.456 24.52C325.243 24.2853 324.952 24.168 324.584 24.168C324.205 24.168 323.904 24.2907 323.68 24.536C323.456 24.776 323.344 25.1253 323.344 25.584V28H322.616V23.616H323.344V24.248C323.488 24.0187 323.68 23.8427 323.92 23.72C324.165 23.5973 324.435 23.536 324.728 23.536C325.096 23.536 325.421 23.6187 325.704 23.784C325.987 23.9493 326.197 24.192 326.336 24.512C326.459 24.2027 326.661 23.9627 326.944 23.792C327.227 23.6213 327.541 23.536 327.888 23.536ZM334.746 23.616V28H334.018V27.352C333.88 27.576 333.685 27.752 333.434 27.88C333.189 28.0027 332.917 28.064 332.618 28.064C332.277 28.064 331.97 27.9947 331.698 27.856C331.426 27.712 331.21 27.4987 331.05 27.216C330.896 26.9333 330.818 26.5893 330.818 26.184V23.616H331.538V26.088C331.538 26.52 331.648 26.8533 331.866 27.088C332.085 27.3173 332.384 27.432 332.762 27.432C333.152 27.432 333.458 27.312 333.682 27.072C333.906 26.832 334.018 26.4827 334.018 26.024V23.616H334.746ZM332.162 23.024C332.045 23.024 331.944 22.984 331.858 22.904C331.778 22.824 331.738 22.7253 331.738 22.608C331.738 22.4907 331.778 22.392 331.858 22.312C331.944 22.2267 332.045 22.184 332.162 22.184C332.274 22.184 332.37 22.2267 332.45 22.312C332.536 22.392 332.578 22.4907 332.578 22.608C332.578 22.7253 332.536 22.824 332.45 22.904C332.37 22.984 332.274 23.024 332.162 23.024ZM333.458 23.024C333.341 23.024 333.242 22.984 333.162 22.904C333.082 22.824 333.042 22.7253 333.042 22.608C333.042 22.4907 333.082 22.392 333.162 22.312C333.242 22.2267 333.341 22.184 333.458 22.184C333.576 22.184 333.674 22.2267 333.754 22.312C333.84 22.392 333.882 22.4907 333.882 22.608C333.882 22.7253 333.84 22.824 333.754 22.904C333.674 22.984 333.576 23.024 333.458 23.024ZM338.423 28L336.703 26.064V28H335.975V22.08H336.703V25.56L338.391 23.616H339.407L337.343 25.8L339.415 28H338.423ZM344.093 25.64C344.093 25.7787 344.085 25.9253 344.069 26.08H340.565C340.591 26.512 340.738 26.8507 341.005 27.096C341.277 27.336 341.605 27.456 341.989 27.456C342.303 27.456 342.565 27.384 342.773 27.24C342.986 27.0907 343.135 26.8933 343.221 26.648H344.005C343.887 27.0693 343.653 27.4133 343.301 27.68C342.949 27.9413 342.511 28.072 341.989 28.072C341.573 28.072 341.199 27.9787 340.869 27.792C340.543 27.6053 340.287 27.3413 340.101 27C339.914 26.6533 339.821 26.2533 339.821 25.8C339.821 25.3467 339.911 24.9493 340.093 24.608C340.274 24.2667 340.527 24.0053 340.853 23.824C341.183 23.6373 341.562 23.544 341.989 23.544C342.405 23.544 342.773 23.6347 343.093 23.816C343.413 23.9973 343.658 24.248 343.829 24.568C344.005 24.8827 344.093 25.24 344.093 25.64ZM343.341 25.488C343.341 25.2107 343.279 24.9733 343.157 24.776C343.034 24.5733 342.866 24.4213 342.653 24.32C342.445 24.2133 342.213 24.16 341.957 24.16C341.589 24.16 341.274 24.2773 341.013 24.512C340.757 24.7467 340.61 25.072 340.573 25.488H343.341ZM350.326 23.536C350.667 23.536 350.971 23.608 351.238 23.752C351.504 23.8907 351.715 24.1013 351.87 24.384C352.024 24.6667 352.102 25.0107 352.102 25.416V28H351.382V25.52C351.382 25.0827 351.272 24.7493 351.054 24.52C350.84 24.2853 350.55 24.168 350.182 24.168C349.803 24.168 349.502 24.2907 349.278 24.536C349.054 24.776 348.942 25.1253 348.942 25.584V28H348.222V25.52C348.222 25.0827 348.112 24.7493 347.894 24.52C347.68 24.2853 347.39 24.168 347.022 24.168C346.643 24.168 346.342 24.2907 346.118 24.536C345.894 24.776 345.782 25.1253 345.782 25.584V28H345.054V23.616H345.782V24.248C345.926 24.0187 346.118 23.8427 346.358 23.72C346.603 23.5973 346.872 23.536 347.166 23.536C347.534 23.536 347.859 23.6187 348.142 23.784C348.424 23.9493 348.635 24.192 348.774 24.512C348.896 24.2027 349.099 23.9627 349.382 23.792C349.664 23.6213 349.979 23.536 350.326 23.536ZM358.568 23.536C358.909 23.536 359.213 23.608 359.48 23.752C359.746 23.8907 359.957 24.1013 360.112 24.384C360.266 24.6667 360.344 25.0107 360.344 25.416V28H359.624V25.52C359.624 25.0827 359.514 24.7493 359.296 24.52C359.082 24.2853 358.792 24.168 358.424 24.168C358.045 24.168 357.744 24.2907 357.52 24.536C357.296 24.776 357.184 25.1253 357.184 25.584V28H356.464V25.52C356.464 25.0827 356.354 24.7493 356.136 24.52C355.922 24.2853 355.632 24.168 355.264 24.168C354.885 24.168 354.584 24.2907 354.36 24.536C354.136 24.776 354.024 25.1253 354.024 25.584V28H353.296V23.616H354.024V24.248C354.168 24.0187 354.36 23.8427 354.6 23.72C354.845 23.5973 355.114 23.536 355.408 23.536C355.776 23.536 356.101 23.6187 356.384 23.784C356.666 23.9493 356.877 24.192 357.016 24.512C357.138 24.2027 357.341 23.9627 357.624 23.792C357.906 23.6213 358.221 23.536 358.568 23.536ZM365.538 25.64C365.538 25.7787 365.53 25.9253 365.514 26.08H362.01C362.037 26.512 362.183 26.8507 362.45 27.096C362.722 27.336 363.05 27.456 363.434 27.456C363.749 27.456 364.01 27.384 364.218 27.24C364.431 27.0907 364.581 26.8933 364.666 26.648H365.45C365.333 27.0693 365.098 27.4133 364.746 27.68C364.394 27.9413 363.957 28.072 363.434 28.072C363.018 28.072 362.645 27.9787 362.314 27.792C361.989 27.6053 361.733 27.3413 361.546 27C361.359 26.6533 361.266 26.2533 361.266 25.8C361.266 25.3467 361.357 24.9493 361.538 24.608C361.719 24.2667 361.973 24.0053 362.298 23.824C362.629 23.6373 363.007 23.544 363.434 23.544C363.85 23.544 364.218 23.6347 364.538 23.816C364.858 23.9973 365.103 24.248 365.274 24.568C365.45 24.8827 365.538 25.24 365.538 25.64ZM364.786 25.488C364.786 25.2107 364.725 24.9733 364.602 24.776C364.479 24.5733 364.311 24.4213 364.098 24.32C363.89 24.2133 363.658 24.16 363.402 24.16C363.034 24.16 362.719 24.2773 362.458 24.512C362.202 24.7467 362.055 25.072 362.018 25.488H364.786ZM367.227 22.08V28H366.499V22.08H367.227Z" fill="#739FCC"/>
<g clip-path="url(#clip1_1_9774)">
<g filter="url(#filter0_d_1_9774)">
<rect x="35" y="41" width="323" height="13" rx="6.5" fill="url(#paint0_linear_1_9774)"/>
<rect x="35.5" y="41.5" width="322" height="12" rx="6" stroke="white"/>
</g>
</g>
<g filter="url(#filter1_d_1_9774)">
<mask id="path-9-inside-1_1_9774" fill="white">
<path d="M203 33C211.284 33 218 39.7157 218 48C218 56.2843 211.284 63 203 63C194.716 63 188 56.2843 188 48C188 39.7157 194.716 33 203 33Z"/>
</mask>
<path d="M203 33C211.284 33 218 39.7157 218 48C218 56.2843 211.284 63 203 63C194.716 63 188 56.2843 188 48C188 39.7157 194.716 33 203 33Z" fill="#2E6DF8"/>
<path d="M218 48H219H218ZM188 48H187H188ZM203 33V34C210.732 34 217 40.268 217 48H218H219C219 39.1634 211.837 32 203 32V33ZM218 48H217C217 55.732 210.732 62 203 62V63V64C211.837 64 219 56.8366 219 48H218ZM203 63V62C195.268 62 189 55.732 189 48H188H187C187 56.8366 194.163 64 203 64V63ZM188 48H189C189 40.268 195.268 34 203 34V33V32C194.163 32 187 39.1634 187 48H188Z" fill="white" mask="url(#path-9-inside-1_1_9774)"/>
<rect x="200.883" y="58.0498" width="12.6443" height="6.74361" rx="3.3718" transform="rotate(-135 200.883 58.0498)" fill="#2E6DF8"/>
<rect width="18.9664" height="6.74361" rx="3.3718" transform="matrix(0.707107 -0.707107 -0.707107 -0.707107 200.883 58.0498)" fill="white" fill-opacity="0.8"/>
<rect x="200.883" y="58.043" width="12.6443" height="6.74361" rx="3.3718" transform="rotate(-135 200.883 58.043)" fill="white"/>
</g>
</g>
<defs>
<filter id="filter0_d_1_9774" x="29" y="37" width="335" height="25" filterUnits="userSpaceOnUse" color-interpolation-filters="sRGB">
<feFlood flood-opacity="0" result="BackgroundImageFix"/>
<feColorMatrix in="SourceAlpha" type="matrix" values="0 0 0 0 0 0 0 0 0 0 0 0 0 0 0 0 0 0 127 0" result="hardAlpha"/>
<feOffset dy="2"/>
<feGaussianBlur stdDeviation="3"/>
<feComposite in2="hardAlpha" operator="out"/>
<feColorMatrix type="matrix" values="0 0 0 0 0 0 0 0 0 0 0 0 0 0 0 0 0 0 0.1 0"/>
<feBlend mode="normal" in2="BackgroundImageFix" result="effect1_dropShadow_1_9774"/>
<feBlend mode="normal" in="SourceGraphic" in2="effect1_dropShadow_1_9774" result="shape"/>
</filter>
<filter id="filter1_d_1_9774" x="184" y="33" width="38" height="38" filterUnits="userSpaceOnUse" color-interpolation-filters="sRGB">
<feFlood flood-opacity="0" result="BackgroundImageFix"/>
<feColorMatrix in="SourceAlpha" type="matrix" values="0 0 0 0 0 0 0 0 0 0 0 0 0 0 0 0 0 0 127 0" result="hardAlpha"/>
<feOffset dy="4"/>
<feGaussianBlur stdDeviation="2"/>
<feComposite in2="hardAlpha" operator="out"/>
<feColorMatrix type="matrix" values="0 0 0 0 0 0 0 0 0 0 0 0 0 0 0 0 0 0 0.1 0"/>
<feBlend mode="normal" in2="BackgroundImageFix" result="effect1_dropShadow_1_9774"/>
<feBlend mode="normal" in="SourceGraphic" in2="effect1_dropShadow_1_9774" result="shape"/>
</filter>
<linearGradient id="paint0_linear_1_9774" x1="35" y1="47.5" x2="358" y2="47.5" gradientUnits="userSpaceOnUse">
<stop stop-color="#E6F7FF"/>
<stop offset="0.5" stop-color="#739FCC"/>
<stop offset="1" stop-color="#2E6DF8"/>
</linearGradient>
<clipPath id="clip0_1_9774">
<rect width="363" height="81" fill="white" transform="translate(15)"/>
</clipPath>
<clipPath id="clip1_1_9774">
<rect width="343" height="40" fill="white" transform="translate(25 41)"/>
</clipPath>
</defs>
</svg>
